<?xml version="1.0" encoding="UTF-8" standalone="no"?>
<svg
   id="katman_1"
   version="1.1"
   viewBox="0 0 841.9 595.3"
   sodipodi:docname="Asset Panda.svg"
   inkscape:version="1.3.2 (091e20e, 2023-11-25, custom)"
   xmlns:inkscape="http://www.inkscape.org/namespaces/inkscape"
   xmlns:sodipodi="http://sodipodi.sourceforge.net/DTD/sodipodi-0.dtd"
   xmlns:xlink="http://www.w3.org/1999/xlink"
   xmlns="http://www.w3.org/2000/svg"
   xmlns:svg="http://www.w3.org/2000/svg">
  <sodipodi:namedview
     id="namedview31"
     pagecolor="#505050"
     bordercolor="#eeeeee"
     borderopacity="1"
     inkscape:showpageshadow="0"
     inkscape:pageopacity="0"
     inkscape:pagecheckerboard="0"
     inkscape:deskcolor="#505050"
     inkscape:zoom="1.1474046"
     inkscape:cx="420.95001"
     inkscape:cy="297.62822"
     inkscape:window-width="1920"
     inkscape:window-height="991"
     inkscape:window-x="-9"
     inkscape:window-y="-9"
     inkscape:window-maximized="1"
     inkscape:current-layer="katman_1" />
  <!-- Generator: Adobe Illustrator 29.4.0, SVG Export Plug-In . SVG Version: 2.1.0 Build 152)  -->
  <defs
     id="defs6">
    <style
       id="style1">
      .st0 {
        fill: url(#Adsız_degrade_83);
      }

      .st0, .st1, .st2, .st3, .st4, .st5, .st6, .st7, .st8, .st9, .st10 {
        fill-rule: evenodd;
      }

      .st1, .st11, .st9 {
        fill: #fff;
      }

      .st2 {
        fill: url(#Adsız_degrade_81);
      }

      .st3 {
        fill: url(#Adsız_degrade_2);
      }

      .st3, .st7, .st8 {
        display: none;
      }

      .st11, .st4, .st9 {
        isolation: isolate;
      }

      .st11, .st9 {
        opacity: .3;
      }

      .st12 {
        fill: url(#Adsız_degrade_84);
      }

      .st4 {
        opacity: .1;
      }

      .st5 {
        fill: url(#Adsız_degrade_82);
      }

      .st13 {
        fill: #0d65af;
      }

      .st7 {
        fill: url(#Adsız_degrade_31);
      }

      .st8 {
        fill: url(#Adsız_degrade_3);
      }

      .st10 {
        fill: url(#Adsız_degrade_8);
      }
    </style>
    <radialGradient
       id="Adsız_degrade_2"
       data-name="Adsız degrade 2"
       cx="416.4"
       cy="-5217.6"
       fx="416.4"
       fy="-5217.6"
       r="91"
       gradientTransform="translate(-57.9 84) scale(.4 0)"
       gradientUnits="userSpaceOnUse">
      <stop
         offset=".1"
         stop-color="#4f4c4d"
         id="stop1" />
      <stop
         offset="1"
         stop-color="#4f4c4d"
         stop-opacity="0"
         id="stop2" />
    </radialGradient>
    <radialGradient
       id="Adsız_degrade_3"
       data-name="Adsız degrade 3"
       cx="229.7"
       cy="-2027.5"
       fx="229.7"
       fy="-2027.5"
       r="91"
       gradientTransform="translate(-42 132.2) scale(1.1 -.2)"
       gradientUnits="userSpaceOnUse">
      <stop
         offset="0"
         stop-color="#4f4c4d"
         id="stop3" />
      <stop
         offset=".9"
         stop-color="#4f4c4d"
         stop-opacity="0"
         id="stop4" />
    </radialGradient>
    <radialGradient
       id="Adsız_degrade_31"
       data-name="Adsız degrade 3"
       cx="444.8"
       cy="-2342.4"
       fx="444.8"
       fy="-2342.4"
       r="52.2"
       gradientTransform="translate(-572 112.1) scale(2 -.1)"
       xlink:href="#Adsız_degrade_3" />
    <linearGradient
       id="Adsız_degrade_8"
       data-name="Adsız degrade 8"
       x1="229.5"
       y1="220.4"
       x2="229.5"
       y2="387.5"
       gradientTransform="translate(0 596.7) scale(1 -1)"
       gradientUnits="userSpaceOnUse">
      <stop
         offset="0"
         stop-color="#fff"
         stop-opacity="0"
         id="stop5" />
      <stop
         offset="1"
         stop-color="#000"
         stop-opacity=".2"
         id="stop6" />
    </linearGradient>
    <linearGradient
       id="Adsız_degrade_81"
       data-name="Adsız degrade 8"
       x1="167.3"
       y1="326.9"
       x2="230.2"
       y2="326.9"
       xlink:href="#Adsız_degrade_8" />
    <linearGradient
       id="Adsız_degrade_82"
       data-name="Adsız degrade 8"
       x1="127.9"
       y1="291.4"
       x2="149.7"
       y2="291.4"
       xlink:href="#Adsız_degrade_8" />
    <linearGradient
       id="Adsız_degrade_83"
       data-name="Adsız degrade 8"
       x1="111"
       y1="318.8"
       x2="159.1"
       y2="318.8"
       xlink:href="#Adsız_degrade_8" />
    <linearGradient
       id="Adsız_degrade_84"
       data-name="Adsız degrade 8"
       x1="142.7"
       y1="210.5"
       x2="142.7"
       y2="350.7"
       xlink:href="#Adsız_degrade_8" />
  </defs>
  <path
     class="st3"
     d="M174.5,448.6c0,4.1-20.7,7.4-46.2,7.4s-46.2-3.3-46.2-7.4,20.7-7.4,46.2-7.4,46.2,3.4,46.2,7.4Z"
     id="path6" />
  <path
     class="st8"
     d="M321.5,439.3c0,8.8-50.6,16-112.9,16s-112.9-7.2-112.9-16,50.6-16,112.9-16,112.9,7.2,112.9,16Z"
     id="path7" />
  <path
     class="st7"
     d="M434.4,448.5c0,4.9-52.9,8.7-118.3,8.7s-118.3-3.9-118.3-8.7,52.9-8.7,118.3-8.7c65.3,0,118.3,3.8,118.3,8.7Z"
     id="path8" />
  <g
     id="g31">
    <g
       id="g13"
       style="fill:#ffffff">
      <path
         class="st13"
         d="M395.3,326.6c0,6.2-.7,11.9-2.3,16.9s-3.8,9.4-6.7,13.1c-3,3.6-6.6,6.5-11,8.6s-9.4,3-15.1,3-6.1-.3-8.8-.9-5.4-1.5-8-2.6v30.2h-22.7v-105.8c2-.6,4.4-1.2,7-1.8s5.4-1,8.3-1.4,5.9-.7,8.8-1c3-.3,5.9-.4,8.6-.4,6.6,0,12.5,1,17.7,3s9.6,4.8,13.2,8.4c3.6,3.6,6.3,8,8.2,13.2,2,5.2,2.9,11,2.9,17.4ZM372.1,327.2c0-7-1.6-12.6-4.7-16.9s-7.8-6.3-14-6.3-3.9,0-5.7.2-3.2.3-4.3.5v41c1.4.9,3.3,1.7,5.6,2.3s4.6.9,7,.9c10.7,0,16.1-7.2,16.1-21.8Z"
         id="path9"
         style="fill:#ffffff" />
      <path
         class="st13"
         d="M441.7,284.3c6.7,0,12.3.7,16.8,2.3,4.5,1.6,8,3.7,10.7,6.5s4.6,6.3,5.7,10.4c1.1,4,1.7,8.6,1.7,13.6v47.3c-3.2.7-7.8,1.6-13.6,2.5-5.8.9-12.8,1.4-21.1,1.4s-9.9-.5-14.1-1.3c-4.3-.9-7.8-2.4-10.9-4.5-3-2.1-5.4-4.8-7-8.2s-2.4-7.5-2.4-12.4.9-8.6,2.8-11.9,4.4-5.9,7.6-7.8c3.2-2,6.7-3.3,10.9-4.2,4-.9,8.3-1.3,12.7-1.3s5.6.1,7.8.4c2.3.3,4.1.6,5.6,1v-2.2c0-3.8-1.1-7-3.5-9.3-2.4-2.4-6.4-3.5-12.2-3.5s-7.7.3-11.5.8-7,1.3-9.8,2.4l-2.9-18.3c1.3-.4,3-.8,5-1.3,2-.5,4.1-.9,6.5-1.2,2.4-.3,4.8-.7,7.4-.9,2.5-.3,5.1-.4,7.8-.4ZM443.6,350.9c2.2,0,4.4,0,6.4-.1,2,0,3.6-.3,4.9-.5v-17.3c-.9-.2-2.3-.4-4.1-.6s-3.5-.3-5.1-.3-4.1.1-6,.4c-1.9.3-3.5.7-4.9,1.5-1.4.7-2.6,1.7-3.4,2.9s-1.2,2.8-1.2,4.6c0,3.6,1.2,6,3.6,7.4,2.4,1.3,5.7,2,9.9,2Z"
         id="path10"
         style="fill:#ffffff" />
      <path
         class="st13"
         d="M497.3,289.2c3.8-1.1,8.8-2.2,15-3.1,6.1-.9,12.5-1.4,19.2-1.4s12.5.9,17,2.7c4.5,1.8,8.1,4.3,10.7,7.6,2.6,3.2,4.5,7.2,5.7,11.6s1.7,9.4,1.7,15v45.4h-22.7v-42.6c0-7.4-.9-12.5-2.9-15.6-2-3-5.5-4.6-10.9-4.6s-3.4,0-5.2.2-3.4.3-4.9.5v62h-22.7s0-77.6,0-77.6Z"
         id="path11"
         style="fill:#ffffff" />
      <path
         class="st13"
         d="M658,364.1c-2,.6-4.4,1.2-7,1.8-2.6.5-5.4,1-8.3,1.4-2.9.4-5.9.7-8.8,1-3,.3-5.9.4-8.6.4-6.6,0-12.5-.9-17.7-2.9-5.2-2-9.6-4.7-13.1-8.3-3.6-3.6-6.3-8-8.2-13.1s-2.8-10.9-2.8-17.3.8-12.4,2.4-17.6c1.6-5.3,4-9.7,7-13.4,3-3.6,6.8-6.5,11.2-8.4,4.5-2,9.5-2.9,15.2-2.9s6,.3,8.5.9,5,1.5,7.6,2.6v-36.3l22.7-3.6v115.8h0ZM606.6,326c0,7,1.6,12.7,4.7,16.9,3.2,4.3,7.8,6.4,14,6.4s3.9,0,5.7-.2c1.8-.1,3.2-.3,4.3-.5v-41.4c-1.4-.9-3.3-1.7-5.6-2.3-2.3-.6-4.6-.9-7-.9-10.7,0-16.1,7.4-16.1,22Z"
         id="path12"
         style="fill:#ffffff" />
      <path
         class="st13"
         d="M708.2,284.3c6.7,0,12.3.7,16.8,2.3,4.5,1.6,8,3.7,10.7,6.5,2.7,2.8,4.6,6.3,5.7,10.4,1.1,4,1.7,8.6,1.7,13.6v47.3c-3.2.7-7.8,1.6-13.6,2.5s-12.8,1.4-21.1,1.4-9.9-.5-14.1-1.3c-4.3-.9-7.8-2.4-10.9-4.5-3-2.1-5.4-4.8-7-8.2s-2.4-7.5-2.4-12.4.9-8.6,2.8-11.9,4.4-5.9,7.6-7.8c3.2-2,6.7-3.3,10.9-4.2,4-.9,8.3-1.3,12.7-1.3s5.6.1,7.8.4c2.3.3,4.1.6,5.6,1v-2.2c0-3.8-1.1-7-3.5-9.3-2.4-2.4-6.4-3.5-12.2-3.5s-7.7.3-11.5.8-7,1.3-9.8,2.4l-2.9-18.3c1.3-.4,3-.8,5-1.3,2-.5,4.1-.9,6.5-1.2,2.4-.3,4.8-.7,7.4-.9,2.5-.3,5.1-.4,7.8-.4ZM710,350.9c2.2,0,4.4,0,6.4-.1,2,0,3.6-.3,4.9-.5v-17.3c-.9-.2-2.3-.4-4.1-.6-1.8-.2-3.5-.3-5.1-.3s-4.1.1-6,.4c-1.9.3-3.5.7-4.9,1.5-1.4.7-2.6,1.7-3.4,2.9s-1.2,2.8-1.2,4.6c0,3.6,1.2,6,3.6,7.4,2.4,1.3,5.7,2,9.9,2Z"
         id="path13"
         style="fill:#ffffff" />
    </g>
    <g
       id="g18"
       style="fill:#ffffff">
      <path
         d="M361.4,163c6.7,0,12.3.7,16.8,2.3,4.5,1.6,8,3.7,10.7,6.5s4.6,6.3,5.7,10.4,1.7,8.6,1.7,13.6v47.3c-3.2.7-7.8,1.6-13.6,2.5-5.8.9-12.8,1.4-21.1,1.4s-9.9-.5-14.1-1.3c-4.3-.9-7.8-2.4-10.9-4.5-3-2.1-5.4-4.8-7-8.2s-2.4-7.5-2.4-12.4.9-8.6,2.8-11.9c1.9-3.2,4.4-5.9,7.6-7.8,3.2-2,6.7-3.3,10.9-4.2,4-.9,8.3-1.3,12.7-1.3s5.6.1,7.8.4c2.3.3,4.1.6,5.6,1v-2.2c0-3.8-1.1-7-3.5-9.3-2.4-2.4-6.4-3.5-12.2-3.5s-7.7.3-11.5.8-7,1.3-9.8,2.4l-2.9-18.3c1.3-.4,3-.8,5-1.3,2-.5,4.1-.9,6.5-1.2,2.4-.3,4.8-.7,7.4-.9,2.5-.2,5.1-.3,7.8-.3ZM363.2,229.5c2.2,0,4.4,0,6.4-.1s3.6-.3,4.9-.5v-17.3c-.9-.2-2.3-.4-4.1-.6s-3.5-.3-5.1-.3-4.1.1-6,.4-3.5.7-4.9,1.4c-1.4.7-2.6,1.7-3.4,2.9s-1.2,2.8-1.2,4.6c0,3.6,1.2,6,3.6,7.4,2.4,1.4,5.7,2.1,9.9,2.1Z"
         id="path14"
         style="fill:#ffffff" />
      <path
         d="M440,229c4.2,0,7.2-.4,8.8-1.2,1.8-.8,2.6-2.4,2.6-4.7s-1.1-3.4-3.4-4.8-5.7-2.9-10.3-4.7c-3.6-1.3-6.8-2.7-9.7-4.1s-5.4-3.1-7.4-5.1c-2-2-3.6-4.3-4.7-7.1-1.1-2.8-1.7-6.1-1.7-9.9,0-7.6,2.8-13.5,8.4-17.9,5.6-4.4,13.3-6.5,23.1-6.5s9.6.4,14,1.3c4.5.9,8,1.8,10.7,2.8l-4,17.7c-2.6-.9-5.5-1.8-8.6-2.4-3.1-.7-6.6-1.1-10.5-1.1-7.2,0-10.7,2-10.7,5.9s.1,1.8.5,2.4c.3.7.9,1.4,1.8,2.1.9.7,2.2,1.3,3.7,2.2,1.6.7,3.6,1.6,6,2.6,5,1.8,9.1,3.6,12.4,5.5,3.2,1.8,5.8,3.7,7.7,5.8,1.9,2.1,3.2,4.4,4,7s1.1,5.5,1.1,8.8c0,7.9-3,13.9-8.9,18-5.9,4-14.4,6.1-25.2,6.1s-13-.6-17.8-1.8-8-2.2-9.9-3l3.8-18.5c3.8,1.6,7.8,2.7,11.9,3.6,4.2.9,8.2,1.3,12.2,1.3Z"
         id="path15"
         style="fill:#ffffff" />
      <path
         d="M514,229c4.2,0,7.2-.4,8.8-1.2,1.8-.8,2.6-2.4,2.6-4.7s-1.1-3.4-3.4-4.8-5.7-2.9-10.3-4.7c-3.6-1.3-6.8-2.7-9.7-4.1s-5.4-3.1-7.4-5.1c-2-2-3.6-4.3-4.7-7.1-1.1-2.8-1.7-6.1-1.7-9.9,0-7.6,2.8-13.5,8.4-17.9s13.3-6.5,23.1-6.5,9.6.4,14,1.3,8,1.8,10.7,2.8l-4,17.7c-2.6-.9-5.5-1.8-8.6-2.4-3.1-.7-6.6-1.1-10.5-1.1-7.2,0-10.7,2-10.7,5.9s.1,1.8.5,2.4c.3.7.9,1.4,1.8,2.1.9.7,2.2,1.3,3.7,2.2,1.6.7,3.6,1.6,6,2.6,5,1.8,9.1,3.6,12.4,5.5s5.8,3.7,7.7,5.8c1.9,2.1,3.2,4.4,4,7,.7,2.6,1.1,5.5,1.1,8.8,0,7.9-3,13.9-8.9,18s-14.4,6.1-25.2,6.1-13-.6-17.8-1.8-8-2.2-9.9-3l3.8-18.5c3.8,1.6,7.8,2.7,11.9,3.6,4.2.9,8.2,1.3,12.2,1.3Z"
         id="path16"
         style="fill:#ffffff" />
      <path
         d="M561.2,205.8c0-7.2,1.1-13.4,3.3-18.7,2.2-5.3,5.1-9.8,8.6-13.4s7.6-6.3,12.3-8.1,9.4-2.8,14.2-2.8c11.4,0,20.4,3.5,27,10.5,6.6,7,9.9,17.2,9.9,30.8s0,2.8-.1,4.3c-.1,1.6-.2,3-.3,4.2h-51.6c.5,4.7,2.7,8.4,6.5,11.1s9,4.1,15.6,4.1,8.2-.4,12.3-1.1,7.3-1.7,9.9-2.8l3,18.5c-1.2.6-2.8,1.2-4.9,1.8s-4.3,1.1-6.8,1.6-5.2.8-8,1.1c-2.8.3-5.7.5-8.6.5-7.2,0-13.5-1.1-18.8-3.2s-9.8-5.1-13.3-8.8c-3.5-3.7-6.1-8.1-7.8-13.2-1.6-5.1-2.5-10.5-2.5-16.5ZM614.6,197.1c-.1-2-.4-3.8-1-5.7-.5-1.8-1.4-3.4-2.6-4.9s-2.6-2.6-4.5-3.5c-1.8-.9-4-1.3-6.6-1.3s-4.7.4-6.5,1.3c-1.8.9-3.4,2-4.6,3.4s-2.2,3.1-2.8,5-1.1,3.8-1.4,5.7h30Z"
         id="path17"
         style="fill:#ffffff" />
      <path
         d="M653.4,145.1l22.7-3.6v23.7h27.3v18.9h-27.3v28.2c0,4.8.8,8.6,2.5,11.5,1.7,2.8,5.1,4.3,10.1,4.3s4.9-.2,7.6-.7c2.6-.5,5-1.1,7.1-1.9l3.2,17.7c-2.8,1.1-5.8,2.1-9.2,2.9s-7.5,1.2-12.4,1.2-11.3-.8-15.4-2.5-7.4-4-9.8-7-4.1-6.6-5.1-10.9c-.9-4.3-1.4-9-1.4-14.2v-67.5h0Z"
         id="path18"
         style="fill:#ffffff" />
    </g>
    <path
       class="st6"
       d="M300,260.5c-2-7.4-5.1-14.2-8.8-20.4,34.4-80.9-89.2-117.9-85-39.4,0,0,.1,0,.3.1-8.7.7-17.5,2.4-26.5,5.4-12.8,4.3-24.4,10.7-34.6,18.4-41.4-59.3-82.3,35.6-38.5,56-3.9,14.5-4.3,29.6-.4,44.3,6.5,24.2,23.4,42.3,45.5,52,21.4,20.5,57,21,85-.4,1.4-1.1,2.8-2.2,4.1-3.4,44.6-21.9,70.5-69.6,58.9-112.8Z"
       id="path19" />
    <path
       class="st1"
       d="M291.2,263.5c-11.9-44.7-62.2-67.4-112.2-50.7-49.9,16.7-80.8,66.4-68.8,111,5.7,21.3,20,37.5,38.9,46.9,19.6,21.7,54.8,23.2,82.1,2.3,1.8-1.4,3.6-2.9,5.3-4.5,41.5-20.5,65.5-64.9,54.7-105.1ZM162.8,324.2c-1.1,3.1-8.1,9-12.6,9.2-3.4.2-12.2-5.7-12.4-8.3-.1-2,1.1-3.1,2.8-3.2l17.8-3c2.8-.2,5.5,2.5,4.4,5.3ZM111.6,295.6c-2.2-12.4,4.2-28.4,17.6-30.8,18-3.2,27.8,10.3,27.1,22.9-.4,6.6-13.7,7.4-26.4,26.3-5.1,7.7-16.6-8.8-18.3-18.4ZM205.2,331.9c-.4-.1-1.5.1-1.8.7-7,12.9-22.2,31.1-38.9,30.3-12.4-.6-23.5-8-29.4-14-.3-.3-1.2-.3-1.5,0-1.4,1.3-3.5,2.2-4.3,1.9.9,0,2.8-1.3,4-3.6,1.1-2.2.4-5,.3-6.6.6,1.3,1.4,3.4,1.3,5.2,0,.3.3,1.2.5,1.3,4.6,4,11,7.8,24.5,5.9,14.6-2.1,31.8-14,41.2-21.7.4-.3.7-1.4.3-1.8-2.6-2.4-4.3-5.7-3.9-7.2.3,1.8,3.2,5.2,8,6.9,4.7,1.6,9.9-.4,13-.9-3.3,2.1-9.1,5.2-13.6,3.7ZM213.7,301.1c-23.2-16.9-39.4-12.1-42.7-19.8-6.3-14.5-.4-34.8,22.3-38.8,17-3,31.5,13.3,34.2,28.9,2.2,12.1-4.4,36.7-13.8,29.8Z"
       id="path20" />
    <path
       class="st10"
       d="M167.8,218c2.8-1.2,5.7-2.3,8.6-3.3,49.9-16.7,100.2,6,112.2,50.7,11.9,44.7-19,93.3-69.1,110-1,.3-2,.7-3,.9,44.8-19.2,19.4-61,50.1-104.9,16-23-49.9-68.2-98.9-53.4Z"
       id="path21" />
    <path
       class="st9"
       d="M214.1,177.3c17.5-33.5,82.9-10.1,76.2,40.3-3.6-41.2-53.3-60.6-76.2-40.3Z"
       id="path22" />
    <path
       class="st9"
       d="M90.4,251.3c-1.6-30,22.7-60.3,51.9-25.9-.5.4-1.6,1.3-2.5,2.5-25.3-28.3-48-4.5-49.4,23.4Z"
       id="path23" />
    <path
       class="st11"
       d="M182.6,281.6s-7.2-1.3-8.2-2.5c-1-1.3-9.2-21,15.5-30.7-7.8,7-13.9,19-7.3,33.2Z"
       id="path24" />
    <path
       class="st11"
       d="M125.4,303.7s-1.9,5.8-3.2,5.8-20.2-25.8,4.3-39.2c-10.3,13.7-7.4,25.6-1.1,33.4Z"
       id="path25" />
    <path
       class="st2"
       d="M229.8,268.9c-2.9-16.5-18.3-33.8-36.3-30.6-24,4.3-30.4,25.8-23.7,41.2.3.8.9,1.5,1.6,2.1,0-.1-.2-.3-.3-.4-6.3-14.5-.4-34.8,22.3-38.8,17-3,31.5,13.3,34.2,28.9,1.7,9.8-2.2,27.4-8.6,30.4,7.9-.7,12.8-21.5,10.9-32.7Z"
       id="path26" />
    <g
       id="g28">
      <path
         class="st5"
         d="M130,314c-.6.9-1.3,1.5-2.1,1.8,1.1-.1,2.2-.7,3-2,6.7-10,13.5-15.2,18.8-18.8-5.1,3.4-12.5,8.3-19.7,19.1Z"
         id="path27" />
      <path
         class="st0"
         d="M130.2,261.4c-14.3,2.5-21.1,19.6-18.8,32.7,0,.3.1.6.2.9-2-12.2,4.4-27.8,17.6-30.2,18-3.2,27.8,10.3,27.1,22.9-.1,2.4-2.1,4.1-5.1,6.2,4.5-3,7.6-5,7.8-8.2.9-13.3-9.7-27.7-28.8-24.4Z"
         id="path28" />
    </g>
    <path
       class="st12"
       d="M177,383.6c-8.9-2.8-17-7.7-23.4-14.8-19.2-9.6-33.9-26.1-39.7-47.6-2.3-8.5-2.9-17.1-2.3-25.7-1.1-6.9.2-14.7,4-20.9,3.4-10.1,8.6-19.8,15.4-28.6-18.9,22.1-27.3,50.9-20.1,77.8,5.7,21.1,19.9,37.3,38.6,46.6,7.4,8.2,16.9,13.4,27.5,15.7v-2.6Z"
       id="path29" />
    <path
       class="st4"
       d="M150.3,333.4c-3.1.2-10.5-4.5-12-7.4-.4.5-.7,1.2-.6,2.2.2,2.7,9,8.5,12.4,8.3,4.5-.3,11.4-6.1,12.6-9.2.3-.9.2-1.7,0-2.5-1.8,3.2-8.2,8.4-12.4,8.7Z"
       id="path30" />
    <path
       id="Left_Pupil"
       class="st1"
       d="M151,289.1c-3.7,2.1-8,1.8-9.8-.7-1.8-2.5,0-6.3,3.7-8.4,1.5-.8,3.8-1.1,3.8-1.1h0c-1.2.5-1.8,1.7-1.3,2.5.5.8,1.9,1.1,3.1.5,1.2-.5,1.8-1.7,1.3-2.5-.2-.4-.9-.7-1.4-.7-2.3-.3-5.3,0-7.8,1.4-4.5,2.5-6.3,7-4.2,9.9,2.1,3,7.4,3.3,11.8.8,2.6-1.4,4.1-3.5,4.7-5.6-.8,1.4-2.1,2.8-3.8,3.8Z" />
    <path
       id="Right_Pupil"
       class="st1"
       d="M216.5,278.5c-4.3-.3-7.7-3-7.8-6,0-3,3.6-5.2,7.8-4.9,1.7.1,3.8,1.1,3.8,1.1h-.1c-1.3-.2-2.4.4-2.5,1.3,0,.9.9,1.9,2.3,2.1,1.3.2,2.4-.4,2.5-1.3,0-.5-.3-1.1-.7-1.4-1.7-1.6-4.5-3-7.3-3.2-5.1-.3-9.1,2.3-9,5.9,0,3.6,4.3,6.9,9.4,7.2,2.9.2,5.4-.7,7-2.1-1.5.9-3.3,1.3-5.3,1.2Z" />
    <path
       d="M753.2,268.3c5.5,0,9.8,4.3,9.8,9.7s-4.3,9.9-9.9,9.9-10-4.3-10-9.9,4.4-9.7,10.1-9.7h0ZM753.1,270c-4.4,0-7.8,3.6-7.8,8s3.4,8.1,7.9,8.1c4.3,0,7.6-3.6,7.6-8,0-4.5-3.3-8.1-7.8-8.1h0ZM751.4,283.5h-1.9v-10.3c1-.2,2.2-.3,3.6-.3s2.6.3,3.2.8c.6.4,1,1.2,1,2.2s-.9,2-2,2.4h0c.9.5,1.3,1.3,1.6,2.6.3,1.6.5,2.2.8,2.5h-2c-.3-.3-.5-1.3-.9-2.6-.3-1.1-.9-1.6-2.3-1.6h-1.2s0,4.3,0,4.3ZM751.4,277.6h1.3c1.3,0,2.6-.4,2.6-1.6s-.7-1.7-2.4-1.7-1.1,0-1.5.1v3.2Z"
       id="path31" />
  </g>
</svg>
