<?xml version="1.0" encoding="UTF-8" standalone="no"?>
<!-- Generator: Adobe Illustrator 29.4.0, SVG Export Plug-In . SVG Version: 9.03 Build 0)  -->

<svg
   version="1.0"
   id="katman_1"
   x="0px"
   y="0px"
   viewBox="0 0 841.9 595.3"
   style="enable-background:new 0 0 841.9 595.3;"
   xml:space="preserve"
   sodipodi:docname="Birdview.svg"
   inkscape:version="1.3.2 (091e20e, 2023-11-25, custom)"
   xmlns:inkscape="http://www.inkscape.org/namespaces/inkscape"
   xmlns:sodipodi="http://sodipodi.sourceforge.net/DTD/sodipodi-0.dtd"
   xmlns="http://www.w3.org/2000/svg"
   xmlns:svg="http://www.w3.org/2000/svg"><defs
   id="defs3" /><sodipodi:namedview
   id="namedview3"
   pagecolor="#505050"
   bordercolor="#eeeeee"
   borderopacity="1"
   inkscape:showpageshadow="0"
   inkscape:pageopacity="0"
   inkscape:pagecheckerboard="0"
   inkscape:deskcolor="#505050"
   inkscape:zoom="1.1474046"
   inkscape:cx="420.95001"
   inkscape:cy="297.62822"
   inkscape:window-width="1920"
   inkscape:window-height="991"
   inkscape:window-x="-9"
   inkscape:window-y="-9"
   inkscape:window-maximized="1"
   inkscape:current-layer="katman_1" />
<style
   type="text/css"
   id="style1">
	.st0{fill:#6955ED;}
	.st1{fill:#3C2BA9;}
</style>
<path
   class="st0"
   d="M619.1,280.7c-5.9-3.5-12.6-5.3-19.4-5.2c-6.9-0.1-13.6,1.7-19.6,5.1c-5.8,3.3-10.5,8.2-13.8,14  c-3.4,6-5.1,12.9-5.1,19.8c-0.1,7,1.6,14,5.1,20.2c3.3,6,8.3,10.9,14.3,14.2c6.5,3.5,13.8,5.2,21.2,5.1c13.8,0,24.6-4.3,32.4-13  L622.5,330c-2.6,2.7-5.6,4.9-9,6.4c-3.7,1.6-7.7,2.3-11.7,2.2c-5.1,0.1-10-1.7-13.9-4.9c-3.9-3.2-6.5-7.6-7.5-12.5h57.7  c0.1-1.2,0.2-2.4,0.1-3.6c0.1-7.6-1.6-15.2-5.1-21.9C629.9,289.5,625.1,284.3,619.1,280.7L619.1,280.7z M580.4,307.6  c0.8-4.8,3.2-9.1,6.8-12.4c3.4-3.2,7.9-4.9,12.6-4.8c4.7-0.1,9.2,1.7,12.6,4.9c3.6,3.3,5.9,7.6,6.6,12.4L580.4,307.6z M310.4,277.7  h-18.1v73.9h18.1V277.7L310.4,277.7z M248.3,275.5c-8.7,0-17.2,3.2-23.7,9v-44.8h-18.1v112h18.1v-6.7c6.6,5.8,15,8.9,23.7,9  c20.6,0,37.3-17.5,37.3-39.2C285.6,293,268.9,275.5,248.3,275.5L248.3,275.5z M244.9,338.2c-6.1-0.1-12-2.7-16.2-7.1  c-4.2-4.4-6.5-10.3-6.4-16.4c0-5.9,2.4-11.6,6.6-15.8c4.3-4.2,10-6.6,16-6.6c6,0,11.7,2.4,16,6.6c4.2,4.2,6.6,9.9,6.6,15.8  c0.1,6.1-2.2,12-6.4,16.4C256.8,335.5,251,338.1,244.9,338.2L244.9,338.2z M425.7,284.5c-6.6-5.8-15-8.9-23.7-9  c-20.6,0-37.3,17.5-37.3,39.2c0,21.7,16.7,39.2,37.3,39.2c8.7,0,17.2-3.2,23.7-9v6.7h18.1v-112h-18.1V284.5z M405.4,338.2  c-6.1-0.1-12-2.7-16.2-7.1c-4.2-4.4-6.5-10.3-6.4-16.4c0-5.9,2.4-11.6,6.6-15.8c4.3-4.2,10-6.6,16-6.6c6,0,11.7,2.4,16,6.6  c4.2,4.2,6.6,9.9,6.6,15.8c0.1,6.1-2.2,12-6.4,16.4C417.3,335.5,411.5,338,405.4,338.2z M301.4,264.3c6.2,0,11.3-5,11.3-11.2  c0-6.2-5.1-11.2-11.3-11.2c0,0,0,0,0,0c-6.2,0-11.3,5-11.3,11.2C290.1,259.3,295.2,264.3,301.4,264.3L301.4,264.3z M554.6,277.7  h-18.1v73.9h18.1V277.7L554.6,277.7z M545.5,264.3c6.2,0,11.3-5,11.3-11.2c0-6.2-5.1-11.2-11.3-11.2c0,0,0,0,0,0  c-6.2,0-11.3,5-11.3,11.2C534.2,259.3,539.3,264.3,545.5,264.3C545.5,264.3,545.5,264.3,545.5,264.3L545.5,264.3z M368.5,276.8  c-5-1.6-10.4-1.7-15.5-0.3c-5.1,1.4-9.7,4.2-13.1,8.2v-6.9h-18.1v73.9h18.1v-41.4c0-5.1,2-9.9,5.6-13.5c5.2-5.2,13-6.9,19.9-4.5  L368.5,276.8L368.5,276.8z M489,322.5l-22.6-44.8H446l42.9,78.4l42.9-78.4h-20.3L489,322.5z M751.2,277.7l-22.6,44.8l-27.1-47  l-27.1,47l-22.6-44.8h-20.3l42.9,78.4l27.1-49.3l27.1,49.3l43-78.4C771.5,277.7,751.2,277.7,751.2,277.7z"
   id="path1"
   style="fill:#ffffff" />
<path
   class="st1"
   d="M148,275.2l-32,31.7l32,31.7c8.5-8.4,13.2-19.8,13.2-31.7C161.2,295,156.5,283.6,148,275.2L148,275.2z"
   id="path2"
   style="fill:#ffffff" />
<path
   class="st0"
   d="M93.4,239.7H70.8v67.2c0,11.9,4.8,23.3,13.2,31.7c8.5,8.4,20,13.1,32,13.1v-89.6c0-5.9-2.4-11.7-6.6-15.8  C105.2,242,99.4,239.7,93.4,239.7L93.4,239.7z M93.4,273.3c-2.2,0-4.4-0.7-6.3-1.9c-1.9-1.2-3.3-3-4.2-5c-1.8-4.2-0.8-9,2.5-12.2  c3.3-3.2,8.1-4.2,12.3-2.4c2.1,0.8,3.8,2.3,5.1,4.1c3,4.4,2.4,10.4-1.4,14.1C99.3,272.1,96.4,273.3,93.4,273.3z"
   id="path3"
   style="fill:#ffffff" />
</svg>
