<?xml version="1.0" encoding="UTF-8" standalone="no"?>
<svg
   id="katman_1"
   version="1.1"
   viewBox="0 0 841.89 595.28"
   sodipodi:docname="HappyLoop.svg"
   inkscape:version="1.3.2 (091e20e, 2023-11-25, custom)"
   xmlns:inkscape="http://www.inkscape.org/namespaces/inkscape"
   xmlns:sodipodi="http://sodipodi.sourceforge.net/DTD/sodipodi-0.dtd"
   xmlns="http://www.w3.org/2000/svg"
   xmlns:svg="http://www.w3.org/2000/svg">
  <sodipodi:namedview
     id="namedview10"
     pagecolor="#505050"
     bordercolor="#eeeeee"
     borderopacity="1"
     inkscape:showpageshadow="0"
     inkscape:pageopacity="0"
     inkscape:pagecheckerboard="0"
     inkscape:deskcolor="#505050"
     inkscape:zoom="1.1474183"
     inkscape:cx="420.94501"
     inkscape:cy="297.62468"
     inkscape:window-width="1920"
     inkscape:window-height="991"
     inkscape:window-x="-9"
     inkscape:window-y="-9"
     inkscape:window-maximized="1"
     inkscape:current-layer="katman_1" />
  <!-- Generator: Adobe Illustrator 29.3.1, SVG Export Plug-In . SVG Version: 2.1.0 Build 151)  -->
  <defs
     id="defs1">
    <style
       id="style1">
      .st0 {
        fill: #045aff;
      }
    </style>
  </defs>
  <path
     class="st0"
     d="M553.75,285.67c-2.04,2.09-3.57,5.17-3.15,9.71h-20.21c-.39-9.41,2.97-17.6,8.86-23.64,7.01-7.19,16.96-10.73,26.58-10.54,9.74.2,19.92,4.27,26.71,13.31,4.26,5.67,6.76,12.7,7.33,20.87h-20.25c-.51-4.16-1.83-7.01-3.25-8.9-2.53-3.37-6.48-5.17-10.95-5.26-4.6-.09-8.96,1.67-11.67,4.44Z"
     id="path1"
     style="fill:#ffffff" />
  <path
     class="st0"
     d="M532.96,309.15h21.4c8.19,18.72,27.86,29.09,48.95,29.32,21.07.23,40.94-9.68,49.38-29.32h21.38c-9.91,33.97-41.27,49.68-70.98,49.35-29.55-.33-60.6-16.56-70.12-49.35Z"
     id="path2"
     style="fill:#ffffff" />
  <path
     class="st0"
     d="M651.74,286.48c2.17,2.11,3.76,5,3.92,8.91h20.18c-.17-9.38-3.99-17.39-9.99-23.22-7.05-6.85-16.79-10.4-26.29-10.26-9.63.14-19.64,4.13-26.33,13.05-4.16,5.55-6.62,12.43-7.26,20.42h20.28c.55-3.96,1.82-6.67,3.17-8.47,2.42-3.22,6.13-4.92,10.45-4.99,4.45-.07,8.9,1.65,11.88,4.55Z"
     id="path3"
     style="fill:#ffffff" />
  <path
     class="st0"
     d="M116.52,262.13c8.2,0,14.69,2.73,19.47,8.19,4.87,5.46,7.3,12.84,7.3,22.15v37.45h-21.23v-36.24c0-4.29-1.08-7.65-3.25-10.07-2.07-2.42-5-3.62-8.79-3.62-4.15,0-7.53,1.39-10.14,4.16-2.52,2.77-3.79,6.4-3.79,10.87v34.9h-21.23v-93.95h21.23v34.9c5.14-5.82,11.94-8.72,20.42-8.72Z"
     id="path4"
     style="fill:#ffffff" />
  <path
     class="st0"
     d="M228.5,263.61v66.3h-18.39l-1.35-7.92c-5.68,6.17-13.07,9.26-22.18,9.26-6.22,0-11.76-1.43-16.63-4.29-4.78-2.95-8.52-7.02-11.22-12.21-2.7-5.28-4.06-11.27-4.06-17.98s1.35-12.66,4.06-17.85c2.7-5.28,6.45-9.35,11.22-12.21,4.87-2.95,10.41-4.43,16.63-4.43,4.51,0,8.65.81,12.44,2.42,3.79,1.52,7.03,3.76,9.74,6.71l1.35-7.78h18.39ZM191.59,313.53c4.69,0,8.52-1.52,11.49-4.56,2.97-3.13,4.46-7.2,4.46-12.21s-1.49-9.04-4.46-12.08c-2.97-3.13-6.81-4.7-11.49-4.7s-8.52,1.57-11.49,4.7c-2.88,3.13-4.33,7.16-4.33,12.08s1.44,8.95,4.33,12.08c2.97,3.13,6.81,4.7,11.49,4.7Z"
     id="path5"
     style="fill:#ffffff" />
  <path
     class="st0"
     d="M286.34,262.27c6.22,0,11.76,1.48,16.63,4.43,4.87,2.86,8.65,6.93,11.36,12.21,2.7,5.19,4.06,11.14,4.06,17.85s-1.35,12.71-4.06,17.98c-2.7,5.19-6.49,9.26-11.36,12.21-4.87,2.86-10.41,4.29-16.63,4.29-8.29,0-15.19-2.59-20.69-7.78v35.16h-21.23v-95.02h18.39l1.35,7.78c5.59-6.08,12.98-9.13,22.18-9.13ZM281.34,313.53c4.69,0,8.52-1.52,11.49-4.56,2.97-3.13,4.46-7.2,4.46-12.21s-1.49-9.04-4.46-12.08c-2.97-3.13-6.81-4.7-11.49-4.7s-8.52,1.57-11.49,4.7c-2.89,3.13-4.33,7.16-4.33,12.08s1.44,8.95,4.33,12.08c2.97,3.13,6.81,4.7,11.49,4.7Z"
     id="path6"
     style="fill:#ffffff" />
  <path
     class="st0"
     d="M372.31,262.27c6.22,0,11.76,1.48,16.63,4.43,4.87,2.86,8.65,6.93,11.36,12.21,2.7,5.19,4.06,11.14,4.06,17.85s-1.35,12.71-4.06,17.98c-2.7,5.19-6.49,9.26-11.36,12.21-4.87,2.86-10.41,4.29-16.63,4.29-8.29,0-15.19-2.59-20.69-7.78v35.16h-21.23v-95.02h18.39l1.35,7.78c5.59-6.08,12.98-9.13,22.18-9.13ZM367.31,313.53c4.69,0,8.52-1.52,11.49-4.56,2.97-3.13,4.46-7.2,4.46-12.21s-1.49-9.04-4.46-12.08c-2.97-3.13-6.81-4.7-11.49-4.7s-8.52,1.57-11.49,4.7c-2.88,3.13-4.33,7.16-4.33,12.08s1.44,8.95,4.33,12.08c2.97,3.13,6.81,4.7,11.49,4.7Z"
     id="path7"
     style="fill:#ffffff" />
  <path
     class="st0"
     d="M460.36,263.61h22.99l-41.65,95.02h-22.58l12.98-29.66-25.96-65.36h22.85l7.71,20.94,7.3,21.61,7.84-21.61,8.52-20.94Z"
     id="path8"
     style="fill:#ffffff" />
  <path
     class="st0"
     d="M492.05,236.01h21.23v93.95h-21.23v-93.95Z"
     id="path9"
     style="fill:#ffffff" />
  <path
     class="st0"
     d="M734.95,262.31c6.22,0,11.76,1.48,16.63,4.43,4.87,2.86,8.66,6.93,11.36,12.21,2.71,5.19,4.05,11.14,4.05,17.85s-1.35,12.71-4.05,17.98c-2.71,5.19-6.49,9.26-11.36,12.21-4.87,2.86-10.41,4.29-16.63,4.29-8.29,0-15.19-2.59-20.69-7.78v35.16h-21.23v-95.02h18.39l1.36,7.78c5.59-6.08,12.98-9.13,22.18-9.13ZM729.95,313.58c4.69,0,8.52-1.52,11.5-4.56,2.98-3.13,4.46-7.2,4.46-12.21s-1.49-9.04-4.46-12.08c-2.98-3.13-6.81-4.7-11.5-4.7s-8.52,1.57-11.49,4.7c-2.89,3.13-4.33,7.16-4.33,12.08s1.44,8.95,4.33,12.08c2.97,3.13,6.81,4.7,11.49,4.7Z"
     id="path10"
     style="fill:#ffffff" />
</svg>
