<?xml version="1.0" encoding="UTF-8" standalone="no"?>
<!-- Generator: Adobe Illustrator 29.4.0, SVG Export Plug-In . SVG Version: 9.03 Build 0)  -->

<svg
   version="1.0"
   id="logo-hubstaff"
   x="0px"
   y="0px"
   viewBox="0 0 624.2 440.4"
   style="enable-background:new 0 0 624.2 440.4;"
   xml:space="preserve"
   sodipodi:docname="Hubstaff.svg"
   inkscape:version="1.3.2 (091e20e, 2023-11-25, custom)"
   xmlns:inkscape="http://www.inkscape.org/namespaces/inkscape"
   xmlns:sodipodi="http://sodipodi.sourceforge.net/DTD/sodipodi-0.dtd"
   xmlns="http://www.w3.org/2000/svg"
   xmlns:svg="http://www.w3.org/2000/svg"><defs
   id="defs4" /><sodipodi:namedview
   id="namedview4"
   pagecolor="#505050"
   bordercolor="#eeeeee"
   borderopacity="1"
   inkscape:showpageshadow="0"
   inkscape:pageopacity="0"
   inkscape:pagecheckerboard="0"
   inkscape:deskcolor="#505050"
   inkscape:zoom="1.5475809"
   inkscape:cx="239.08282"
   inkscape:cy="220.02081"
   inkscape:window-width="1920"
   inkscape:window-height="991"
   inkscape:window-x="-9"
   inkscape:window-y="-9"
   inkscape:window-maximized="1"
   inkscape:current-layer="logo-hubstaff" />
<style
   type="text/css"
   id="style1">
	.st0{fill:#294DFF;}
	.st1{fill:#1F95FF;}
	.st2{fill:#5FBBFF;}
</style>
<path
   d="M229.6,188.1h14.6v64.9h-14.6v-27.6h-24.6v27.6h-14.6v-64.9h14.6V213h24.6V188.1z M300.4,251.4c-2.4,0.7-5.4,1.3-9.2,1.9  c-3.7,0.6-7.7,0.9-11.8,0.9c-4.2,0-7.7-0.6-10.4-1.7c-2.8-1.1-5-2.7-6.6-4.7c-1.6-2-2.8-4.5-3.5-7.3c-0.7-2.8-1-5.9-1-9.3v-27.5h14  v25.8c0,4.5,0.6,7.7,1.8,9.7c1.2,2,3.4,3,6.7,3c1,0,2.1,0,3.2-0.1c1-0.1,2-0.2,3-0.3v-38h14V251.4z M359.3,228.4  c0,3.9-0.6,7.5-1.7,10.7c-1.2,3.2-2.8,5.9-5,8.2c-2.2,2.2-4.9,4-8.1,5.2c-3.2,1.2-6.8,1.8-10.9,1.8c-1.8,0-3.5-0.1-5.3-0.2  c-1.8-0.2-3.6-0.4-5.4-0.6c-1.7-0.2-3.4-0.5-5.1-0.9c-1.5-0.3-2.9-0.7-4.3-1.1v-63.2l14-2.2v18.9c1.6-0.7,3.2-1.2,4.9-1.6  c1.7-0.4,3.5-0.6,5.4-0.6c3.5,0,6.6,0.6,9.3,1.8c2.7,1.2,4.9,3,6.7,5.2c1.8,2.2,3.2,5,4.1,8.1C358.8,221.1,359.3,224.6,359.3,228.4   M345.1,228.1c0-9-3.3-13.5-9.9-13.5c-1.4,0-2.9,0.2-4.3,0.6c-1.4,0.4-2.5,0.8-3.4,1.4v25.4c0.7,0.1,1.6,0.2,2.6,0.3  c1.1,0.1,2.2,0.1,3.5,0.1c3.8,0,6.7-1.3,8.6-3.9C344.1,235.8,345.1,232.4,345.1,228.1 M384.2,243.1c2.6,0,4.4-0.2,5.4-0.8  c1.1-0.5,1.6-1.5,1.6-2.9c0-1.1-0.7-2.1-2.1-3c-1.4-0.8-3.5-1.8-6.3-2.9c-2.2-0.8-4.2-1.7-6-2.5c-1.8-0.9-3.3-1.9-4.5-3.1  c-1.3-1.2-2.2-2.7-2.9-4.4c-0.7-1.7-1-3.7-1-6.1c0-4.6,1.7-8.3,5.2-11c3.4-2.7,8.2-4,14.1-4c3,0,5.9,0.3,8.6,0.8  c2.7,0.5,4.9,1.1,6.6,1.7l-2.4,10.9c-1.7-0.6-3.5-1.1-5.3-1.5c-1.9-0.4-4-0.7-6.4-0.7c-4.4,0-6.6,1.2-6.6,3.7c0,0.6,0.1,1.1,0.3,1.5  c0.2,0.4,0.6,0.9,1.1,1.3c0.6,0.4,1.3,0.8,2.3,1.3c1,0.5,2.2,1,3.7,1.6c3.1,1.1,5.6,2.3,7.6,3.4c2,1.1,3.6,2.3,4.7,3.6  c1.2,1.3,2,2.7,2.4,4.3s0.7,3.4,0.7,5.4c0,4.9-1.8,8.5-5.5,11c-3.7,2.5-8.8,3.7-15.5,3.7c-4.4,0-8-0.4-10.9-1.1  c-2.9-0.7-4.9-1.4-6-1.9l2.3-11.3c2.4,0.9,4.8,1.7,7.3,2.2C379.3,242.8,381.8,243.1,384.2,243.1 M415.1,188.3l14-2.2v17.8h16.8v11.6  H429v17.3c0,2.9,0.5,5.3,1.5,7c1,1.8,3.1,2.6,6.2,2.6c1.5,0,3-0.1,4.6-0.4c1.6-0.3,3-0.7,4.4-1.2l2,10.9c-1.7,0.7-3.6,1.3-5.6,1.8  c-2.1,0.5-4.6,0.8-7.6,0.8c-3.8,0-7-0.5-9.5-1.5c-2.5-1-4.5-2.5-6-4.3c-1.5-1.8-2.5-4.1-3.1-6.7c-0.6-2.6-0.9-5.5-0.9-8.7  L415.1,188.3L415.1,188.3z M473,202.5c4.1,0,7.6,0.5,10.3,1.4s5,2.3,6.6,4c1.7,1.8,2.8,3.9,3.5,6.4c0.7,2.5,1,5.3,1,8.3v29.1  c-2,0.4-4.8,1-8.3,1.5c-3.6,0.6-7.9,0.9-12.9,0.9c-3.2,0-6.1-0.3-8.7-0.8c-2.6-0.6-4.8-1.5-6.7-2.8c-1.9-1.3-3.3-3-4.3-5  c-1-2.1-1.5-4.6-1.5-7.6c0-2.9,0.6-5.3,1.7-7.3c1.2-2,2.7-3.6,4.6-4.8c1.9-1.2,4.2-2,6.7-2.6c2.6-0.5,5.2-0.8,7.8-0.8  c1.8,0,3.4,0.1,4.8,0.2c1.4,0.2,2.5,0.4,3.4,0.6V222c0-2.4-0.7-4.3-2.2-5.7c-1.4-1.4-3.9-2.2-7.5-2.2c-2.4,0-4.7,0.2-7,0.5  c-2.3,0.3-4.3,0.8-6,1.5l-1.8-11.2c0.8-0.2,1.8-0.5,3-0.8c1.2-0.3,2.5-0.5,4-0.8c1.5-0.2,3-0.4,4.5-0.6  C469.8,202.6,471.4,202.5,473,202.5 M474.1,243.3c1.4,0,2.7,0,3.9-0.1c1.2-0.1,2.2-0.2,3-0.3v-10.6c-0.6-0.1-1.4-0.2-2.5-0.4  c-1-0.1-2.1-0.2-3.1-0.2c-1.3,0-2.5,0.1-3.7,0.2c-1.2,0.2-2.2,0.5-3,0.9c-0.9,0.4-1.6,1-2.1,1.8c-0.5,0.8-0.8,1.7-0.8,2.8  c0,2.2,0.7,3.7,2.2,4.5C469.5,242.9,471.5,243.3,474.1,243.3 M528.5,186.3c2.6,0,5,0.3,7.2,0.8c2.2,0.5,3.9,1,5.1,1.5l-2.7,11.2  c-1.3-0.6-2.7-1-4.1-1.3c-1.5-0.3-2.8-0.4-4.1-0.4c-1.7,0-3.1,0.2-4.3,0.7c-1.2,0.5-2.1,1.1-2.7,1.9c-0.7,0.8-1.1,1.8-1.4,2.9  c-0.3,1.1-0.4,2.3-0.4,3.7v2.4h17.2v11.6h-17.2v31.8h-14v-46c0-6.4,1.8-11.4,5.4-15.2C516.1,188.1,521.4,186.3,528.5,186.3   M567.7,186.3c2.6,0,5,0.3,7.2,0.8c2.2,0.5,3.9,1,5.1,1.5l-2.7,11.2c-1.3-0.6-2.7-1-4.1-1.3c-1.5-0.3-2.8-0.4-4.1-0.4  c-1.7,0-3.1,0.2-4.3,0.7c-1.2,0.5-2.1,1.1-2.7,1.9c-0.7,0.8-1.1,1.8-1.4,2.9c-0.3,1.1-0.4,2.3-0.4,3.7v2.4h17.2v11.6h-17.2v31.8h-14  v-46c0-6.4,1.8-11.4,5.4-15.2C555.3,188.1,560.7,186.3,567.7,186.3"
   id="path1"
   style="fill:#ffffff" />
<path
   class="st0"
   d="M58,262.1l25.4,14.7c1.4,0.8,3.2,0.5,4.3-0.8c3.2-3.9,8-6.3,13.4-6.3c5.4,0,10.3,2.5,13.5,6.4  c1.1,1.3,2.9,1.7,4.3,0.8l25.5-14.8c1.7-1,2.2-3.2,1.1-4.8c-1.2-1.8-2.6-3.6-4-5.3c-3.8-4.4-8.5-8.1-13.6-11l-3.4-2l-0.2-0.1  c-0.2-0.1-0.4-0.2-0.6-0.3c-1.1-0.5-2.3-0.2-3.1,0.6c-4.8,5.3-11.7,8.6-19.5,8.6c-7.7,0-14.6-3.3-19.4-8.6c-0.8-0.9-2-1.1-3.1-0.6  l0,0l-4,2.3c-6.4,3.7-12.1,8.6-16.5,14.5c-0.5,0.6-0.9,1.3-1.3,1.9C55.8,258.9,56.3,261.1,58,262.1"
   id="path2" />
<path
   class="st1"
   d="M62.1,178.2c-1.4,0.8-2,2.5-1.5,4.1c1.8,4.7,1.5,10.2-1.2,14.9c-2.7,4.7-7.3,7.6-12.3,8.4  c-1.6,0.3-2.8,1.7-2.8,3.3l0,29.3c0,1.9,1.6,3.5,3.5,3.3c7.5-0.5,14.8-2.5,21.5-6.1l3.1-1.8c0.8-0.5,1.7-1.1,2.5-1.6  c1-0.7,1.4-1.9,1-3c-2.1-6.8-1.4-14.3,2.4-20.9c3.9-6.6,10.1-10.9,17.1-12.5c1.1-0.2,2-1.2,2.1-2.3c0.1-1.3,0.2-2.7,0.2-4.1l0-2.1  c-0.1-7.7-1.9-15.3-5.3-22.3c-0.8-1.7-3-2.4-4.7-1.4L62.1,178.2z"
   id="path3" />
<path
   class="st2"
   d="M142.9,197.2c-2.7-4.7-3-10.1-1.2-14.9c0.6-1.5,0-3.3-1.5-4.1l-25.6-14.6c-1.7-1-3.8-0.3-4.7,1.4  c-3.4,6.9-5.2,14.5-5.3,22.3l0,2.1c0,1.4,0.1,2.7,0.2,4.1c0.1,1.1,1,2.1,2.1,2.3c6.9,1.5,13.2,5.8,17.1,12.5  c3.8,6.6,4.5,14.2,2.4,20.9c-0.3,1.1,0.1,2.3,1,3c0.8,0.6,1.6,1.1,2.5,1.6l3.1,1.8c6.6,3.5,14,5.6,21.5,6.1c1.9,0.1,3.5-1.4,3.5-3.3  l0-29.3c0-1.6-1.2-3-2.8-3.3C150.2,204.8,145.6,201.9,142.9,197.2"
   id="path4" />
</svg>
