<svg version="1.0" id="katman_1" x="0" y="0" viewBox="0 0 800 600" xml:space="preserve" xmlns="http://www.w3.org/2000/svg">
  <style type="text/css" id="style1">
    .st0{fill-rule:evenodd;clip-rule:evenodd;fill:#ff2d20}
  </style>
  <path class="st0" d="M325.3 243.8v82.5h29.8v14.2h-45.7v-96.7zm86 41v-8.7h15.1v64.4h-15.1v-8.7c-2 3.2-4.9 5.8-8.6 7.6s-7.5 2.8-11.3 2.8c-4.9 0-9.4-.9-13.4-2.7-3.9-1.7-7.5-4.2-10.4-7.4-2.9-3.1-5.2-6.8-6.8-10.8-1.6-4.1-2.5-8.5-2.4-13q0-6.75 2.4-12.9c1.6-4 3.9-7.7 6.8-10.8 2.9-3.2 6.5-5.7 10.4-7.4 4.1-1.8 8.5-2.7 13.4-2.7 3.8 0 7.5.9 11.3 2.8s6.6 4.3 8.6 7.5m-1.4 31.4c.9-2.5 1.4-5.2 1.4-7.9 0-2.8-.5-5.4-1.4-7.9-.9-2.4-2.2-4.6-3.9-6.5s-3.7-3.4-6-4.4c-2.3-1.1-5-1.7-7.8-1.7-2.9 0-5.4.6-7.7 1.7s-4.3 2.6-5.9 4.4c-1.7 1.9-3 4.1-3.8 6.5-.9 2.5-1.3 5.2-1.3 7.9 0 2.8.4 5.4 1.3 7.9s2.1 4.7 3.8 6.5c1.7 1.9 3.7 3.4 5.9 4.4 2.3 1.1 4.9 1.7 7.7 1.7 2.9 0 5.5-.6 7.8-1.7s4.3-2.6 6-4.4c1.7-1.9 3-4.1 3.9-6.5m28.3 24.3v-64.4h40.9v14.8h-25.8v49.6zm95.5-55.7v-8.7h15.1v64.4h-15.1v-8.7c-2 3.2-4.9 5.8-8.6 7.6s-7.5 2.8-11.3 2.8c-4.9 0-9.3-.9-13.4-2.7-3.9-1.7-7.5-4.2-10.4-7.4-2.9-3.1-5.2-6.8-6.8-10.8-1.6-4.1-2.5-8.5-2.4-13q0-6.75 2.4-12.9c1.6-4 3.8-7.7 6.8-10.8 2.9-3.2 6.5-5.7 10.4-7.4 4.1-1.8 8.5-2.7 13.4-2.7 3.8 0 7.5.9 11.3 2.8 3.7 1.8 6.6 4.3 8.6 7.5m-1.4 31.4c.9-2.5 1.4-5.2 1.4-7.9 0-2.8-.5-5.4-1.4-7.9-.9-2.4-2.2-4.6-3.9-6.5s-3.7-3.4-6-4.4c-2.3-1.1-5-1.7-7.8-1.7-2.9 0-5.4.6-7.7 1.7s-4.3 2.6-5.9 4.4c-1.7 1.9-3 4.1-3.8 6.5-.9 2.5-1.3 5.2-1.3 7.9 0 2.8.4 5.4 1.3 7.9s2.1 4.7 3.8 6.5c1.7 1.9 3.7 3.4 5.9 4.4 2.3 1.1 4.9 1.7 7.7 1.7 2.9 0 5.5-.6 7.8-1.7s4.3-2.6 6-4.4c1.8-1.9 3.1-4.1 3.9-6.5m76.9-40.1h15.3l-24.7 64.4h-18.9L556 276.1h15.3l18.9 49.3zm48.1-1.6c20.5 0 34.5 18.2 31.9 39.4h-50c0 5.6 5.6 16.3 18.9 16.3 11.5 0 19.1-10.1 19.1-10.1l10.2 7.9c-9.1 9.7-16.5 14.2-28.2 14.2-20.8 0-35-13.2-35-33.9 0-18.7 14.6-33.8 33.1-33.8m-18.1 28.2h36.1c-.1-1.2-2.1-16.3-18.2-16.3-16 0-17.8 15.1-17.9 16.3m59.7 37.8v-96.7H714v96.7z" id="path1" style="fill:#fff"/>
  <path class="st0" d="M282.9 228.5c.1.3.1.5.1.8v40.4c0 1.1-.6 2-1.5 2.6l-33.9 19.5v38.7c0 1.1-.6 2-1.5 2.6l-70.7 40.7c-.2.1-.3.2-.5.2-.1 0-.1.1-.2.1q-.75.15-1.5 0c-.1 0-.2-.1-.2-.1-.2-.1-.3-.1-.5-.2l-70.7-40.7c-.9-.5-1.5-1.5-1.5-2.6V209.3c0-.3 0-.5.1-.8 0-.1.1-.2.1-.2.1-.2.1-.3.2-.5.1-.1.1-.2.2-.3l.3-.3c.1-.1.2-.1.3-.2l.3-.3 35.3-20.3c.9-.5 2-.5 2.9 0l35.3 20.3.3.3c.1.1.2.1.3.2l.3.3c.1.1.1.2.2.3s.1.3.2.5c0 .1.1.2.1.3.1.3.1.5.1.8V285l29.5-17v-38.7c0-.3 0-.5.1-.8 0-.1.1-.2.1-.3.1-.2.1-.3.2-.5.1-.1.1-.2.2-.3l.3-.3c.1-.1.2-.1.3-.2l.3-.3 35.3-20.3c.9-.5 2-.5 2.9 0l35.3 20.3.3.3c.1.1.2.1.3.2l.3.3c.1.1.1.2.2.3s.1.3.2.5c.3.2.3.2.3.3m-5.8 39.4v-33.6l-12.4 7.1-17.1 9.8v33.6zm-35.3 60.8v-33.6l-16.8 9.6-48 27.4V366zM106.3 214.4v114.3l64.8 37.3v-33.9l-33.9-19.2c-.1-.1-.2-.2-.3-.2-.1-.1-.2-.1-.3-.2s-.2-.2-.2-.3c-.1-.1-.2-.2-.2-.3-.1-.1-.1-.2-.2-.4 0-.1-.1-.2-.1-.3s0-.3-.1-.4v-79.3l-17.1-9.8zm32.4-22.1-29.4 17 29.4 17 29.4-17zM154 298.1l17.1-9.8v-73.9l-12.4 7.1-17.1 9.8v73.9c.1.1 12.4-7.1 12.4-7.1m90.7-85.8-29.4 17 29.4 17 29.4-17c.1 0-29.4-17-29.4-17m-2.9 39.1-17.1-9.8-12.4-7.1v33.6l17.1 9.8 12.4 7.1zM174 327l43.2-24.7 21.6-12.3-29.4-16.9-33.9 19.5-30.9 17.8c.1-.1 29.4 16.6 29.4 16.6" id="path2" style="fill:#fff"/>
</svg>
