<svg id="katman_1" version="1.1" viewBox="0 0 841.89 595.28" xmlns="http://www.w3.org/2000/svg"><defs id="defs1"><style id="style1">.st0{fill:#ffca73}.st1{fill:#282c33}.st2{fill:#cc4e00}.st3{fill:#f96b13}</style></defs><path class="st1" d="M190.31 253.74h19.45v70.58h34.93v15.26h-54.38z" id="path1" style="fill:#fff"/><path class="st1" d="M250.33 317.52v-40.45h17.28v38.07c0 8.52 3.61 12.59 10.82 12.59 1.81.09 3.61-.21 5.29-.88s3.2-1.7 4.44-3.01c1.25-1.31 2.19-2.88 2.77-4.6.58-1.71.78-3.53.59-5.33v-36.84h17.28v62.78h-17.18V330c-1.88 3.6-4.77 6.57-8.31 8.55a20.9 20.9 0 0 1-11.64 2.6c-12.23 0-21.36-7.18-21.36-23.63Z" id="path2" style="fill:#fff"/><path class="st1" d="M317.08 309.26v-.97a31.18 31.18 0 0 1 9.11-23.37c3.05-3.05 6.71-5.44 10.73-7.01s8.33-2.28 12.64-2.1c14.43 0 27.96 6.35 29.52 24.36h-16.53c-.09-1.56-.49-3.08-1.19-4.48-.69-1.4-1.66-2.64-2.85-3.65a11.7 11.7 0 0 0-4.06-2.24c-1.49-.46-3.06-.62-4.61-.46-9.02 0-15.01 6.75-15.01 18.73v.97c0 12.59 5.63 19.09 15.37 19.09a12.7 12.7 0 0 0 9.25-3.26 12.74 12.74 0 0 0 4.18-8.87h15.73c-.94 14.87-11.76 25.26-29.98 25.26s-32.29-11.51-32.29-32.01Z" id="path3" style="fill:#fff"/><path class="st1" d="M387.62 259.07c-.09-1.98.42-3.94 1.46-5.63a9.87 9.87 0 0 1 4.37-3.84 9.87 9.87 0 0 1 5.77-.73c1.95.34 3.76 1.25 5.19 2.63a9.92 9.92 0 0 1 2.3 10.89 9.9 9.9 0 0 1-3.68 4.51 9.95 9.95 0 0 1-5.57 1.67 9.56 9.56 0 0 1-6.94-2.66c-.92-.88-1.65-1.95-2.15-3.12s-.76-2.44-.77-3.71Zm1.34 18.04h17.28v62.75h-17.28z" id="path4" style="fill:#fff"/><path class="st1" d="M413.78 309.37v-.97c0-20.64 11.87-32.76 27.6-32.76a20.92 20.92 0 0 1 19.81 10.82v-36.8h17.28v90.21h-17.28v-10.46a22.77 22.77 0 0 1-20.16 11.76c-15.23 0-27.24-10.9-27.24-31.79Zm46.91-.62v-.94c0-12.48-5.52-18.87-15.01-18.87s-15.12 6.6-15.12 19.09v.97c0 12.48 6.03 18.58 14.65 18.58s15.48-6.1 15.48-18.84Z" id="path5" style="fill:#fff"/><path class="st1" d="M485.95 309.26v-.97c-.18-4.31.54-8.61 2.11-12.64 1.57-4.02 3.96-7.67 7.01-10.72s6.7-5.44 10.72-7.01 8.32-2.29 12.64-2.11c14.43 0 27.97 6.35 29.55 24.36h-16.45c-.09-1.59-.51-3.15-1.23-4.57s-1.73-2.68-2.96-3.7a11.58 11.58 0 0 0-8.91-2.56c-8.98 0-14.98 6.75-14.98 18.73v.97c0 12.59 5.63 19.09 15.34 19.09 1.68.1 3.36-.14 4.95-.7s3.06-1.43 4.31-2.55a12.75 12.75 0 0 0 4.2-8.88h15.73c-.97 14.87-11.76 25.26-30.02 25.26s-32.01-11.51-32.01-32.01Z" id="path6" style="fill:#fff"/><path class="st1" d="M555.98 249.65h17.43v37.38c1.95-3.65 4.91-6.67 8.52-8.69s7.73-2.96 11.86-2.72c12.38 0 21.15 7.43 21.15 24.25v39.98h-17.43V302.4c0-8.52-3.36-12.59-11.04-12.59s-13.06 4.55-13.06 13.78v36.26h-17.43v-90.21Z" id="path7" style="fill:#fff"/><path class="st1" d="M622.56 322.43c0-14.61 13.42-20.13 32.48-20.13h7.22v-2.53c0-7.43-2.27-11.55-10.21-11.55a9.43 9.43 0 0 0-9.83 5.12 9.4 9.4 0 0 0-.99 3.79h-16.45c1.08-14.9 12.85-21.65 28.22-21.65s26.27 6.24 26.27 23.27v41.1h-16.92v-7.58a21.25 21.25 0 0 1-8.3 6.94 21.2 21.2 0 0 1-10.64 1.94c-11.22 0-20.82-5.52-20.82-18.73Zm39.69-4.55v-5.27h-6.71c-10.1 0-15.98 2.16-15.98 8.88 0 4.55 2.78 7.54 9.13 7.54 7.72 0 13.6-4.19 13.6-11.15h-.03Z" id="path8" style="fill:#fff"/><path class="st1" d="M690.68 277.07h17.43v12.02c1.59-4.02 4.41-7.44 8.04-9.77 3.64-2.33 7.92-3.46 12.24-3.22v16.24c-12.84 0-20.28 4.08-20.28 16.06v31.46h-17.43v-62.78Z" id="path9" style="fill:#fff"/><path class="st1" d="M739.93 321.24v-31.9h-8.04v-12.27h8.04V263.5h17.28v13.57h13.78v12.27h-13.78v30.24c0 5.05 2.52 7.43 6.96 7.43 2.36-.07 4.68-.61 6.82-1.59v14.43c-3.53.94-7.18 1.34-10.82 1.19-13.17 0-20.24-6.71-20.24-19.81Z" id="path10" style="fill:#fff"/><path class="st3" d="M71 272.04V324l44.26 25.96V337l-33.2-19.52v-38.96l-11.07-6.48Z" id="path11"/><path class="st2" d="M148.46 278.52v51.96l11.07-6.48v-51.96z" id="path12"/><path class="st0" d="m104.2 252.52 44.26 26 11.07-6.48-44.26-26z" id="path13"/><path class="st0" d="m71 272.04 11.07 6.48 11.07-6.48-11.07-6.52z" id="path14"/><path class="st2" d="M82.07 278.52v38.96L93.14 311v-38.96z" id="path15"/><path class="st2" d="M115.26 337v12.96l11.07-6.48v-13z" id="path16"/><path class="st0" d="m82.07 317.48 33.2 19.52 11.07-6.52L93.14 311z" id="path17"/><path class="st3" d="M104.2 252.52v13L137.4 285v39l11.07 6.48v-51.96l-44.26-26Z" id="path18"/></svg>