<?xml version="1.0" encoding="UTF-8" standalone="no"?>
<svg
   id="katman_1"
   version="1.1"
   viewBox="0 0 841.9 595.3"
   sodipodi:docname="Rocketlane.svg"
   inkscape:version="1.3.2 (091e20e, 2023-11-25, custom)"
   xmlns:inkscape="http://www.inkscape.org/namespaces/inkscape"
   xmlns:sodipodi="http://sodipodi.sourceforge.net/DTD/sodipodi-0.dtd"
   xmlns="http://www.w3.org/2000/svg"
   xmlns:svg="http://www.w3.org/2000/svg">
  <sodipodi:namedview
     id="namedview12"
     pagecolor="#505050"
     bordercolor="#eeeeee"
     borderopacity="1"
     inkscape:showpageshadow="0"
     inkscape:pageopacity="0"
     inkscape:pagecheckerboard="0"
     inkscape:deskcolor="#505050"
     inkscape:zoom="1.1474046"
     inkscape:cx="421.82154"
     inkscape:cy="297.62822"
     inkscape:window-width="1920"
     inkscape:window-height="991"
     inkscape:window-x="-9"
     inkscape:window-y="-9"
     inkscape:window-maximized="1"
     inkscape:current-layer="katman_1" />
  <!-- Generator: Adobe Illustrator 29.3.1, SVG Export Plug-In . SVG Version: 2.1.0 Build 151)  -->
  <defs
     id="defs1">
    <style
       id="style1">
      .st0, .st1 {
        fill-rule: evenodd;
      }

      .st0, .st2 {
        fill: #1d1d1b;
      }

      .st1 {
        fill: #0f62fe;
      }
    </style>
  </defs>
  <path
     class="st2"
     d="M180.7,275c1.4-.3,2.8-.5,4-.6,1.3-.2,2.8-.3,4.3-.3s2.8,0,4.2.3c1.4.2,2.8.4,4.2.7.3.5.5,1.2.7,2.1.3.9.5,1.8.7,2.8.2.9.3,1.9.4,3,.2.9.3,1.8.4,2.4,2.1-2.9,4.7-5.5,7.7-7.8,3.1-2.4,6.9-3.6,11.4-3.6s2.1,0,3.3.1c1.2,0,2.1.2,2.7.4.2.9.3,2,.4,3.3,0,1.2.1,2.5.1,3.8s0,3.4-.3,5.3c0,1.9-.3,3.7-.7,5.4-1-.2-2.2-.3-3.6-.3h-2.3c-1.6,0-3.4.2-5.4.6-2,.3-3.9,1.1-5.7,2.6-1.8,1.4-3.3,3.6-4.6,6.4-1.1,2.8-1.7,6.8-1.7,11.9v34.9c-1.7.3-3.4.5-5.2.6-1.7,0-3.4.1-5,.1s-3.3,0-5-.1c-1.6,0-3.3-.3-5.2-.6v-73.6Z"
     id="path1"
     style="fill:#ffffff" />
  <path
     class="st2"
     d="M258.9,350.1c-6,0-11.3-.9-15.7-2.8-4.4-2-8.1-4.7-11-8.1-2.9-3.5-5.1-7.6-6.6-12.2-1.4-4.6-2.1-9.7-2.1-15.1s.7-10.5,2.1-15.2c1.5-4.7,3.7-8.8,6.6-12.2,3-3.5,6.6-6.3,11-8.2,4.5-2,9.7-3,15.7-3s11.3,1,15.7,3c4.5,2,8.2,4.7,11.2,8.2,3,3.4,5.2,7.5,6.6,12.2,1.4,4.7,2.1,9.8,2.1,15.2s-.7,10.4-2.1,15.1c-1.4,4.6-3.6,8.7-6.6,12.2-3,3.4-6.7,6.1-11.2,8.1-4.5,1.9-9.7,2.8-15.7,2.8ZM258.9,334.8c5.3,0,9.2-1.9,11.4-5.8,2.4-4,3.6-9.7,3.6-17s-1.2-13-3.6-16.9c-2.3-4-6.1-6-11.4-6s-9.1,2-11.4,6c-2.3,3.9-3.4,9.5-3.4,16.9s1.1,13.1,3.4,17c2.4,3.9,6.2,5.8,11.4,5.8Z"
     id="path2"
     style="fill:#ffffff" />
  <path
     class="st2"
     d="M351.7,331.1c1.1,1.9,2.1,4.1,2.9,6.7.8,2.5,1.1,5.4,1.1,8.8-3.8,1.5-7.4,2.5-10.7,2.8-3.3.5-6.8.7-10.4.7-6.2,0-11.6-.9-16.2-2.8-4.6-2-8.4-4.7-11.4-8.1-3-3.4-5.2-7.4-6.7-12.1-1.5-4.7-2.3-9.8-2.3-15.3s.7-10.4,2.1-15.1c1.5-4.6,3.8-8.7,6.7-12.2,3.1-3.5,6.8-6.3,11.3-8.2,4.5-2,9.7-3,15.6-3s4,0,5.7.1c1.8,0,3.5.3,5.2.6,1.6.3,3.2.7,4.9,1.1s3.4,1.1,5.4,1.8c0,2.2-.3,4.6-.9,7.4-.6,2.7-1.5,5.2-2.7,7.7-2.9-.9-5.4-1.6-7.6-1.8-2.1-.4-4.5-.6-7.3-.6-5.9,0-10.4,1.9-13.5,5.8-3,3.8-4.4,9.2-4.4,16.3s1.6,13.3,4.9,16.8c3.2,3.5,7.6,5.3,13.2,5.3h3.9c1.2,0,2.4-.2,3.6-.4,1.1-.2,2.3-.5,3.4-.9,1.2-.4,2.7-.9,4.3-1.4Z"
     id="path3"
     style="fill:#ffffff" />
  <path
     class="st2"
     d="M360,244.6c3.2-.6,6.6-.9,10-.9s6.8.3,10.2.9v103.8c-3.3.6-6.7.9-10.2.9s-6.8-.3-10-.9v-103.8ZM380.1,309.9l18.3-34.9c3.7-.6,7.5-.9,11.3-.9s7.2.3,10.6.9l-18.9,34,22,39.5c-3.9.6-7.7.9-11.3.9s-6.9-.3-10.6-.9l-21.5-38.5Z"
     id="path4"
     style="fill:#ffffff" />
  <path
     class="st2"
     d="M438.3,317.9c.4,5.7,2.4,9.8,6,12.4,3.6,2.6,8.4,3.8,14.3,3.8s6.5-.3,9.9-.9c3.4-.7,6.7-1.6,9.7-2.7,1,1.9,2,4.2,2.7,6.8.8,2.7,1.2,5.5,1.3,8.5-7.4,2.8-15.8,4.3-25.2,4.3s-12.8-.9-17.7-2.8c-4.9-1.9-8.9-4.5-12-7.8-3.1-3.4-5.3-7.4-6.9-12.1-1.4-4.6-2.1-9.7-2.1-15.2s.8-10.5,2.3-15.2c1.5-4.7,3.8-8.9,6.7-12.4,3.1-3.5,6.8-6.3,11.2-8.2,4.5-2.1,9.7-3.1,15.6-3.1s9.7.9,13.7,2.7c4,1.8,7.4,4.3,10.2,7.4,2.9,3.1,5,6.9,6.4,11.2,1.4,4.3,2.1,8.9,2.1,13.8s0,3.6-.3,5.4c0,1.7-.2,3.1-.4,4.1h-47.5ZM467.3,303.8c-.2-4.5-1.5-8.2-3.9-10.9-2.3-2.8-5.5-4.3-9.7-4.3s-8.4,1.3-10.9,4c-2.5,2.7-4,6.4-4.4,11.2h28.9Z"
     id="path5"
     style="fill:#ffffff" />
  <path
     class="st2"
     d="M495.9,290.3h-9.3l-.7-2.8,26.8-34h3.3v21.5h17.3c.3,1.4.5,2.7.6,3.8,0,1.1.1,2.3.1,3.6s0,2.6-.1,3.8c0,1.2-.3,2.6-.6,4.1h-17.3v28.8c0,2.9.2,5.3.7,7.1.5,1.8,1.1,3.2,2,4.3,1,1,2.1,1.8,3.4,2.1,1.3.4,2.9.6,4.7.6s2.8,0,4.2-.3c1.4-.3,2.7-.5,3.7-.7.7,1.8,1.1,3.7,1.4,5.7.3,1.9.4,3.6.4,5.1s0,1.9-.1,2.7c0,.7,0,1.3-.1,2-4.4,1-8.9,1.6-13.6,1.6-8.7,0-15.3-2-19.9-6-4.6-4.1-6.9-10.7-6.9-19.7v-33.2Z"
     id="path6"
     style="fill:#ffffff" />
  <path
     class="st2"
     d="M541.2,244.3c1-.2,2.2-.3,3.4-.4,1.3,0,2.5-.1,3.6-.1s2.2,0,3.4.1c1.3,0,2.5.2,3.6.4v82.1c0,2.7.2,4.7.7,6.3.5,1.5,1.1,2.7,1.9,3.6.9.8,1.8,1.3,2.9,1.6,1.1.2,2.3.3,3.6.3s1.8,0,2.9-.1c1.1,0,2.1-.2,2.9-.4.9,3.3,1.3,6.9,1.3,10.8-1.3.5-3,.8-4.9.9-1.9.2-3.7.3-5.3.3-2.8,0-5.3-.3-7.7-1-2.4-.7-4.5-1.8-6.3-3.3-1.8-1.5-3.2-3.6-4.3-6.1-1-2.6-1.6-5.7-1.6-9.5v-85.2Z"
     id="path7"
     style="fill:#ffffff" />
  <path
     class="st2"
     d="M614.3,314.2c-1.4-.2-3.2-.4-5.4-.6-2.2-.2-4.1-.3-5.6-.3-5.9,0-10.4,1.1-13.6,3.3-3.1,2.2-4.6,5.5-4.6,9.9s.5,5.1,1.6,6.7c1,1.6,2.3,2.8,3.9,3.7,1.6.9,3.4,1.4,5.3,1.6,1.9.2,3.7.3,5.4.3s4.4,0,6.7-.3c2.4-.3,4.5-.7,6.3-1.1v-23.2ZM614.3,300.4c0-5.6-1.4-9.5-4.3-11.6-2.9-2.2-7-3.3-12.4-3.3s-6.5.3-9.4.9c-2.9.5-5.7,1.1-8.4,2-1.8-3.1-2.7-6.9-2.7-11.2,3.2-1,6.8-1.8,10.7-2.4,3.9-.6,7.7-.9,11.3-.9,9.5,0,16.8,2.2,21.7,6.5,5,4.3,7.4,11.1,7.4,20.6v45.6c-3.3.8-7.4,1.5-12.2,2.3-4.8.9-9.6,1.3-14.6,1.3s-8.9-.4-12.7-1.3c-3.7-.9-6.9-2.2-9.6-4.1-2.6-1.9-4.6-4.3-6-7.2-1.4-2.9-2.1-6.5-2.1-10.7s.8-7.6,2.4-10.7c1.7-3.1,4-5.7,6.9-7.7,2.9-2.1,6.2-3.6,9.9-4.5,3.7-1,7.6-1.6,11.7-1.6s5.5,0,7.4.3c2,0,3.7.2,5,.4v-2.7Z"
     id="path8"
     style="fill:#ffffff" />
  <path
     class="st2"
     d="M640.9,275.6c1-.2,2.1-.3,3-.4,1.1,0,2.1-.1,3.2-.1s2,0,2.9.1c1,0,2,.2,3,.4.3,1.4.6,3.4.9,5.8.3,2.4.4,4.4.4,6,1-1.6,2.1-3.2,3.6-4.8,1.5-1.6,3.2-3,5.2-4.3,1.9-1.3,4.1-2.4,6.6-3.1,2.5-.9,5.2-1.3,8.2-1.3,8.4,0,14.6,2.4,18.6,7.2,4,4.7,6,11.8,6,21.2v46.2c-1,.2-2.2.3-3.6.4-1.3,0-2.5.1-3.6.1s-2.2,0-3.6-.1c-1.2,0-2.4-.2-3.4-.4v-42.3c0-6.7-1-11.6-3.2-14.8-2.1-3.2-5.4-4.8-10-4.8s-5.2.5-7.6,1.4c-2.4.9-4.5,2.4-6.3,4.4-1.8,2-3.3,4.6-4.4,7.8-1,3.1-1.6,6.9-1.6,11.4v36.9c-1,.2-2.2.3-3.6.4-1.2,0-2.4.1-3.4.1s-2.2,0-3.6-.1c-1.3,0-2.5-.2-3.6-.4v-72.9Z"
     id="path9"
     style="fill:#ffffff" />
  <path
     class="st2"
     d="M725.6,315.5c.2,8,2.2,13.8,6.2,17.5,4,3.7,9.9,5.5,17.6,5.5s13.2-1.2,19.3-3.6c.8,1.4,1.4,3.2,1.9,5.3.5,2,.8,4,.9,6-3.2,1.3-6.6,2.3-10.4,3-3.7.7-7.9,1-12.4,1-6.7,0-12.4-.9-17.2-2.7-4.8-1.9-8.7-4.5-11.9-7.8-3.1-3.4-5.3-7.4-6.7-11.9-1.4-4.6-2.1-9.7-2.1-15.2s.7-10.4,2-15.1c1.4-4.7,3.6-8.8,6.4-12.2,2.9-3.5,6.4-6.3,10.7-8.2,4.4-2.1,9.5-3.1,15.5-3.1s9.5.9,13.3,2.6c3.8,1.7,7,4.1,9.6,7.1,2.6,2.9,4.5,6.5,5.9,10.7,1.3,4.1,2,8.5,2,13.4s0,2.7-.1,4.3c0,1.4-.2,2.7-.3,3.7h-49.9ZM762,305c0-2.7-.4-5.2-1.1-7.5-.7-2.5-1.7-4.6-3.1-6.4-1.3-1.8-3.1-3.2-5.3-4.3-2.1-1.1-4.6-1.7-7.6-1.7-5.8,0-10.3,1.8-13.5,5.3-3.1,3.5-4.9,8.4-5.6,14.6h36.2Z"
     id="path10"
     style="fill:#ffffff" />
  <path
     class="st1"
     d="M142.4,273l17.5,38.6-17.5,38.6c-3.9,1.3-8.1,1.9-12.4,1.9s-11.6-1.3-16.7-3.6l16.7-36.9-16.7-36.9c5.1-2.3,10.8-3.6,16.7-3.6s8.5.7,12.4,1.9Z"
     id="path11" />
  <path
     class="st0"
     d="M96.1,273.3l17.2,37.9-17.2,37.9c-4.4,1.7-9.2,2.6-14.3,2.6s-10.7-1.1-15.4-3l17-37.5-17-37.5c4.8-2,10-3,15.4-3s9.8.9,14.3,2.6Z"
     id="path12"
     style="fill:#ffffff" />
</svg>
